<svg xml:space="preserve"
     xmlns="http://www.w3.org/2000/svg"
     xmlns:xlink="http://www.w3.org/1999/xlink"
     xmlns:html="http://www.w3.org/1999/xhtml"
id="black-panther-wakanda-forever-downloads-by-day-day" x="0px" y="0px"
width="1920.000000px" height="1080.000000px"
viewBox="0 0 1920.000000 1080.000000" enable-background="new 0 0 1920.000000 1080.000000" role="img">
<title>
black-panther-wakanda-forever-downloads-by-day-day
</title>
<desc>
Daily series for black-panther-wakanda-forever: upeers_total solid, useeds_total dashed.
</desc>
<title>
black-panther-wakanda-forever-downloads-by-day-day
</title>
 <g id="annotations">
<text x="960.000000" y="126.000000" font-family="Atkinson Hyperlegible" font-size="26.000000pt" text-anchor="middle" text-align="center" font-weight="600" font-style="normal"  style="fill:rgb(118,118,118); fill-opacity:1; stroke:rgb(118,118,118); stroke-opacity:0; stroke-width:0.5"> black-panther-wakanda-forever downloads by day</text>
 <g id="axes-lines">
<text x="960.000000" y="1007.000000" font-family="Atkinson Hyperlegible" font-size="18.000000pt" text-anchor="middle" text-align="center" font-weight="500" font-style="normal"  style="fill:rgb(118,118,118); fill-opacity:1; stroke:rgb(118,118,118); stroke-opacity:0; stroke-width:0.5"> DAY</text>
<text x="73.000000" y="540.000000" font-family="Atkinson Hyperlegible" font-size="18.000000pt" text-anchor="middle" text-align="center" dominant-baseline="central" font-weight="500" font-style="normal"  style="fill:rgb(118,118,118); fill-opacity:1; stroke:rgb(118,118,118); stroke-opacity:0; stroke-width:0.5" transform="rotate(-90,73,540)"> DOWNLOADERS</text>
 </g>
 <g id="tic-y-label-lines">
<line x1="218.000000" y1="787.977114" x2="1702.000000" y2="787.977114" style="fill:rgb(0,0,255); fill-opacity:0; stroke:rgb(242,242,242); stroke-opacity:1; stroke-width:4" />
<line x1="218.000000" y1="719.977114" x2="1702.000000" y2="719.977114" style="fill:rgb(0,0,255); fill-opacity:0; stroke:rgb(242,242,242); stroke-opacity:1; stroke-width:4" />
<line x1="218.000000" y1="651.977114" x2="1702.000000" y2="651.977114" style="fill:rgb(0,0,255); fill-opacity:0; stroke:rgb(242,242,242); stroke-opacity:1; stroke-width:4" />
<line x1="218.000000" y1="583.977114" x2="1702.000000" y2="583.977114" style="fill:rgb(0,0,255); fill-opacity:0; stroke:rgb(242,242,242); stroke-opacity:1; stroke-width:4" />
<line x1="218.000000" y1="515.977114" x2="1702.000000" y2="515.977114" style="fill:rgb(0,0,255); fill-opacity:0; stroke:rgb(242,242,242); stroke-opacity:1; stroke-width:4" />
<line x1="218.000000" y1="447.977114" x2="1702.000000" y2="447.977114" style="fill:rgb(0,0,255); fill-opacity:0; stroke:rgb(242,242,242); stroke-opacity:1; stroke-width:4" />
<line x1="218.000000" y1="379.977114" x2="1702.000000" y2="379.977114" style="fill:rgb(0,0,255); fill-opacity:0; stroke:rgb(242,242,242); stroke-opacity:1; stroke-width:4" />
<line x1="218.000000" y1="311.977114" x2="1702.000000" y2="311.977114" style="fill:rgb(0,0,255); fill-opacity:0; stroke:rgb(242,242,242); stroke-opacity:1; stroke-width:4" />
<line x1="218.000000" y1="243.977114" x2="1702.000000" y2="243.977114" style="fill:rgb(0,0,255); fill-opacity:0; stroke:rgb(242,242,242); stroke-opacity:1; stroke-width:4" />
<line x1="218.000000" y1="175.977114" x2="1702.000000" y2="175.977114" style="fill:rgb(0,0,255); fill-opacity:0; stroke:rgb(242,242,242); stroke-opacity:1; stroke-width:4" />
 </g>
 <g id="tic-x-labels">
<text x="200.000000" y="898.000000" font-family="Atkinson Hyperlegible" font-size="14.000000pt" text-anchor="middle" text-align="center" dominant-baseline="central" font-weight="400" font-style="normal"  style="fill:rgb(118,118,118); fill-opacity:1; stroke:rgb(118,118,118); stroke-opacity:0; stroke-width:0.5"> 1</text>
<text x="275.580110" y="898.000000" font-family="Atkinson Hyperlegible" font-size="14.000000pt" text-anchor="middle" text-align="center" dominant-baseline="central" font-weight="400" font-style="normal"  style="fill:rgb(118,118,118); fill-opacity:1; stroke:rgb(118,118,118); stroke-opacity:0; stroke-width:0.5"> 10</text>
<text x="351.160221" y="898.000000" font-family="Atkinson Hyperlegible" font-size="14.000000pt" text-anchor="middle" text-align="center" dominant-baseline="central" font-weight="400" font-style="normal"  style="fill:rgb(118,118,118); fill-opacity:1; stroke:rgb(118,118,118); stroke-opacity:0; stroke-width:0.5"> 19</text>
<text x="426.740331" y="898.000000" font-family="Atkinson Hyperlegible" font-size="14.000000pt" text-anchor="middle" text-align="center" dominant-baseline="central" font-weight="400" font-style="normal"  style="fill:rgb(118,118,118); fill-opacity:1; stroke:rgb(118,118,118); stroke-opacity:0; stroke-width:0.5"> 28</text>
<text x="502.320442" y="898.000000" font-family="Atkinson Hyperlegible" font-size="14.000000pt" text-anchor="middle" text-align="center" dominant-baseline="central" font-weight="400" font-style="normal"  style="fill:rgb(118,118,118); fill-opacity:1; stroke:rgb(118,118,118); stroke-opacity:0; stroke-width:0.5"> 37</text>
<text x="577.900552" y="898.000000" font-family="Atkinson Hyperlegible" font-size="14.000000pt" text-anchor="middle" text-align="center" dominant-baseline="central" font-weight="400" font-style="normal"  style="fill:rgb(118,118,118); fill-opacity:1; stroke:rgb(118,118,118); stroke-opacity:0; stroke-width:0.5"> 46</text>
<text x="653.480663" y="898.000000" font-family="Atkinson Hyperlegible" font-size="14.000000pt" text-anchor="middle" text-align="center" dominant-baseline="central" font-weight="400" font-style="normal"  style="fill:rgb(118,118,118); fill-opacity:1; stroke:rgb(118,118,118); stroke-opacity:0; stroke-width:0.5"> 55</text>
<text x="729.060773" y="898.000000" font-family="Atkinson Hyperlegible" font-size="14.000000pt" text-anchor="middle" text-align="center" dominant-baseline="central" font-weight="400" font-style="normal"  style="fill:rgb(118,118,118); fill-opacity:1; stroke:rgb(118,118,118); stroke-opacity:0; stroke-width:0.5"> 64</text>
<text x="804.640884" y="898.000000" font-family="Atkinson Hyperlegible" font-size="14.000000pt" text-anchor="middle" text-align="center" dominant-baseline="central" font-weight="400" font-style="normal"  style="fill:rgb(118,118,118); fill-opacity:1; stroke:rgb(118,118,118); stroke-opacity:0; stroke-width:0.5"> 73</text>
<text x="880.220994" y="898.000000" font-family="Atkinson Hyperlegible" font-size="14.000000pt" text-anchor="middle" text-align="center" dominant-baseline="central" font-weight="400" font-style="normal"  style="fill:rgb(118,118,118); fill-opacity:1; stroke:rgb(118,118,118); stroke-opacity:0; stroke-width:0.5"> 82</text>
<text x="955.801105" y="898.000000" font-family="Atkinson Hyperlegible" font-size="14.000000pt" text-anchor="middle" text-align="center" dominant-baseline="central" font-weight="400" font-style="normal"  style="fill:rgb(118,118,118); fill-opacity:1; stroke:rgb(118,118,118); stroke-opacity:0; stroke-width:0.5"> 91</text>
<text x="1031.381215" y="898.000000" font-family="Atkinson Hyperlegible" font-size="14.000000pt" text-anchor="middle" text-align="center" dominant-baseline="central" font-weight="400" font-style="normal"  style="fill:rgb(118,118,118); fill-opacity:1; stroke:rgb(118,118,118); stroke-opacity:0; stroke-width:0.5"> 100</text>
<text x="1106.961326" y="898.000000" font-family="Atkinson Hyperlegible" font-size="14.000000pt" text-anchor="middle" text-align="center" dominant-baseline="central" font-weight="400" font-style="normal"  style="fill:rgb(118,118,118); fill-opacity:1; stroke:rgb(118,118,118); stroke-opacity:0; stroke-width:0.5"> 109</text>
<text x="1182.541436" y="898.000000" font-family="Atkinson Hyperlegible" font-size="14.000000pt" text-anchor="middle" text-align="center" dominant-baseline="central" font-weight="400" font-style="normal"  style="fill:rgb(118,118,118); fill-opacity:1; stroke:rgb(118,118,118); stroke-opacity:0; stroke-width:0.5"> 118</text>
<text x="1258.121547" y="898.000000" font-family="Atkinson Hyperlegible" font-size="14.000000pt" text-anchor="middle" text-align="center" dominant-baseline="central" font-weight="400" font-style="normal"  style="fill:rgb(118,118,118); fill-opacity:1; stroke:rgb(118,118,118); stroke-opacity:0; stroke-width:0.5"> 127</text>
<text x="1333.701657" y="898.000000" font-family="Atkinson Hyperlegible" font-size="14.000000pt" text-anchor="middle" text-align="center" dominant-baseline="central" font-weight="400" font-style="normal"  style="fill:rgb(118,118,118); fill-opacity:1; stroke:rgb(118,118,118); stroke-opacity:0; stroke-width:0.5"> 136</text>
<text x="1409.281768" y="898.000000" font-family="Atkinson Hyperlegible" font-size="14.000000pt" text-anchor="middle" text-align="center" dominant-baseline="central" font-weight="400" font-style="normal"  style="fill:rgb(118,118,118); fill-opacity:1; stroke:rgb(118,118,118); stroke-opacity:0; stroke-width:0.5"> 145</text>
<text x="1484.861878" y="898.000000" font-family="Atkinson Hyperlegible" font-size="14.000000pt" text-anchor="middle" text-align="center" dominant-baseline="central" font-weight="400" font-style="normal"  style="fill:rgb(118,118,118); fill-opacity:1; stroke:rgb(118,118,118); stroke-opacity:0; stroke-width:0.5"> 154</text>
<text x="1560.441989" y="898.000000" font-family="Atkinson Hyperlegible" font-size="14.000000pt" text-anchor="middle" text-align="center" dominant-baseline="central" font-weight="400" font-style="normal"  style="fill:rgb(118,118,118); fill-opacity:1; stroke:rgb(118,118,118); stroke-opacity:0; stroke-width:0.5"> 163</text>
<text x="1636.022099" y="898.000000" font-family="Atkinson Hyperlegible" font-size="14.000000pt" text-anchor="middle" text-align="center" dominant-baseline="central" font-weight="400" font-style="normal"  style="fill:rgb(118,118,118); fill-opacity:1; stroke:rgb(118,118,118); stroke-opacity:0; stroke-width:0.5"> 172</text>
<text x="1711.602210" y="898.000000" font-family="Atkinson Hyperlegible" font-size="14.000000pt" text-anchor="middle" text-align="center" dominant-baseline="central" font-weight="400" font-style="normal"  style="fill:rgb(118,118,118); fill-opacity:1; stroke:rgb(118,118,118); stroke-opacity:0; stroke-width:0.5"> 181</text>
 </g>
 <g id="tic-y-labels">
<text x="164.000000" y="857.977114" font-family="Atkinson Hyperlegible" font-size="14.000000pt" text-anchor="middle" text-align="center" dominant-baseline="central" font-weight="400" font-style="normal"  style="fill:rgb(118,118,118); fill-opacity:1; stroke:rgb(118,118,118); stroke-opacity:0; stroke-width:0.5"> 30k</text>
<text x="1756.000000" y="857.977114" font-family="Atkinson Hyperlegible" font-size="14.000000pt" text-anchor="middle" text-align="center" dominant-baseline="central" font-weight="400" font-style="normal"  style="fill:rgb(118,118,118); fill-opacity:1; stroke:rgb(118,118,118); stroke-opacity:0; stroke-width:0.5"> 30k</text>
<text x="164.000000" y="789.977114" font-family="Atkinson Hyperlegible" font-size="14.000000pt" text-anchor="middle" text-align="center" dominant-baseline="central" font-weight="400" font-style="normal"  style="fill:rgb(118,118,118); fill-opacity:1; stroke:rgb(118,118,118); stroke-opacity:0; stroke-width:0.5"> 124k</text>
<text x="1756.000000" y="789.977114" font-family="Atkinson Hyperlegible" font-size="14.000000pt" text-anchor="middle" text-align="center" dominant-baseline="central" font-weight="400" font-style="normal"  style="fill:rgb(118,118,118); fill-opacity:1; stroke:rgb(118,118,118); stroke-opacity:0; stroke-width:0.5"> 124k</text>
<text x="164.000000" y="721.977114" font-family="Atkinson Hyperlegible" font-size="14.000000pt" text-anchor="middle" text-align="center" dominant-baseline="central" font-weight="400" font-style="normal"  style="fill:rgb(118,118,118); fill-opacity:1; stroke:rgb(118,118,118); stroke-opacity:0; stroke-width:0.5"> 218k</text>
<text x="1756.000000" y="721.977114" font-family="Atkinson Hyperlegible" font-size="14.000000pt" text-anchor="middle" text-align="center" dominant-baseline="central" font-weight="400" font-style="normal"  style="fill:rgb(118,118,118); fill-opacity:1; stroke:rgb(118,118,118); stroke-opacity:0; stroke-width:0.5"> 218k</text>
<text x="164.000000" y="653.977114" font-family="Atkinson Hyperlegible" font-size="14.000000pt" text-anchor="middle" text-align="center" dominant-baseline="central" font-weight="400" font-style="normal"  style="fill:rgb(118,118,118); fill-opacity:1; stroke:rgb(118,118,118); stroke-opacity:0; stroke-width:0.5"> 312k</text>
<text x="1756.000000" y="653.977114" font-family="Atkinson Hyperlegible" font-size="14.000000pt" text-anchor="middle" text-align="center" dominant-baseline="central" font-weight="400" font-style="normal"  style="fill:rgb(118,118,118); fill-opacity:1; stroke:rgb(118,118,118); stroke-opacity:0; stroke-width:0.5"> 312k</text>
<text x="164.000000" y="585.977114" font-family="Atkinson Hyperlegible" font-size="14.000000pt" text-anchor="middle" text-align="center" dominant-baseline="central" font-weight="400" font-style="normal"  style="fill:rgb(118,118,118); fill-opacity:1; stroke:rgb(118,118,118); stroke-opacity:0; stroke-width:0.5"> 406k</text>
<text x="1756.000000" y="585.977114" font-family="Atkinson Hyperlegible" font-size="14.000000pt" text-anchor="middle" text-align="center" dominant-baseline="central" font-weight="400" font-style="normal"  style="fill:rgb(118,118,118); fill-opacity:1; stroke:rgb(118,118,118); stroke-opacity:0; stroke-width:0.5"> 406k</text>
<text x="164.000000" y="517.977114" font-family="Atkinson Hyperlegible" font-size="14.000000pt" text-anchor="middle" text-align="center" dominant-baseline="central" font-weight="400" font-style="normal"  style="fill:rgb(118,118,118); fill-opacity:1; stroke:rgb(118,118,118); stroke-opacity:0; stroke-width:0.5"> 499k</text>
<text x="1756.000000" y="517.977114" font-family="Atkinson Hyperlegible" font-size="14.000000pt" text-anchor="middle" text-align="center" dominant-baseline="central" font-weight="400" font-style="normal"  style="fill:rgb(118,118,118); fill-opacity:1; stroke:rgb(118,118,118); stroke-opacity:0; stroke-width:0.5"> 499k</text>
<text x="164.000000" y="449.977114" font-family="Atkinson Hyperlegible" font-size="14.000000pt" text-anchor="middle" text-align="center" dominant-baseline="central" font-weight="400" font-style="normal"  style="fill:rgb(118,118,118); fill-opacity:1; stroke:rgb(118,118,118); stroke-opacity:0; stroke-width:0.5"> 593k</text>
<text x="1756.000000" y="449.977114" font-family="Atkinson Hyperlegible" font-size="14.000000pt" text-anchor="middle" text-align="center" dominant-baseline="central" font-weight="400" font-style="normal"  style="fill:rgb(118,118,118); fill-opacity:1; stroke:rgb(118,118,118); stroke-opacity:0; stroke-width:0.5"> 593k</text>
<text x="164.000000" y="381.977114" font-family="Atkinson Hyperlegible" font-size="14.000000pt" text-anchor="middle" text-align="center" dominant-baseline="central" font-weight="400" font-style="normal"  style="fill:rgb(118,118,118); fill-opacity:1; stroke:rgb(118,118,118); stroke-opacity:0; stroke-width:0.5"> 687k</text>
<text x="1756.000000" y="381.977114" font-family="Atkinson Hyperlegible" font-size="14.000000pt" text-anchor="middle" text-align="center" dominant-baseline="central" font-weight="400" font-style="normal"  style="fill:rgb(118,118,118); fill-opacity:1; stroke:rgb(118,118,118); stroke-opacity:0; stroke-width:0.5"> 687k</text>
<text x="164.000000" y="313.977114" font-family="Atkinson Hyperlegible" font-size="14.000000pt" text-anchor="middle" text-align="center" dominant-baseline="central" font-weight="400" font-style="normal"  style="fill:rgb(118,118,118); fill-opacity:1; stroke:rgb(118,118,118); stroke-opacity:0; stroke-width:0.5"> 781k</text>
<text x="1756.000000" y="313.977114" font-family="Atkinson Hyperlegible" font-size="14.000000pt" text-anchor="middle" text-align="center" dominant-baseline="central" font-weight="400" font-style="normal"  style="fill:rgb(118,118,118); fill-opacity:1; stroke:rgb(118,118,118); stroke-opacity:0; stroke-width:0.5"> 781k</text>
<text x="164.000000" y="245.977114" font-family="Atkinson Hyperlegible" font-size="14.000000pt" text-anchor="middle" text-align="center" dominant-baseline="central" font-weight="400" font-style="normal"  style="fill:rgb(118,118,118); fill-opacity:1; stroke:rgb(118,118,118); stroke-opacity:0; stroke-width:0.5"> 875k</text>
<text x="1756.000000" y="245.977114" font-family="Atkinson Hyperlegible" font-size="14.000000pt" text-anchor="middle" text-align="center" dominant-baseline="central" font-weight="400" font-style="normal"  style="fill:rgb(118,118,118); fill-opacity:1; stroke:rgb(118,118,118); stroke-opacity:0; stroke-width:0.5"> 875k</text>
<text x="164.000000" y="177.977114" font-family="Atkinson Hyperlegible" font-size="14.000000pt" text-anchor="middle" text-align="center" dominant-baseline="central" font-weight="400" font-style="normal"  style="fill:rgb(118,118,118); fill-opacity:1; stroke:rgb(118,118,118); stroke-opacity:0; stroke-width:0.5"> 969k</text>
<text x="1756.000000" y="177.977114" font-family="Atkinson Hyperlegible" font-size="14.000000pt" text-anchor="middle" text-align="center" dominant-baseline="central" font-weight="400" font-style="normal"  style="fill:rgb(118,118,118); fill-opacity:1; stroke:rgb(118,118,118); stroke-opacity:0; stroke-width:0.5"> 969k</text>
 </g>
 </g>
 <g id="weekend-bands-black-panther-wakanda-forever downloads by day">
<rect x="225.193370" y="200.000000" width="16.795580" height="680.000000"
 style="fill:rgb(148,148,148); fill-opacity:0.15; stroke:rgb(148,148,148); stroke-opacity:0; stroke-width:0" />
<rect x="283.977901" y="200.000000" width="16.795580" height="680.000000"
 style="fill:rgb(148,148,148); fill-opacity:0.15; stroke:rgb(148,148,148); stroke-opacity:0; stroke-width:0" />
<rect x="342.762431" y="200.000000" width="16.795580" height="680.000000"
 style="fill:rgb(148,148,148); fill-opacity:0.15; stroke:rgb(148,148,148); stroke-opacity:0; stroke-width:0" />
<rect x="401.546961" y="200.000000" width="16.795580" height="680.000000"
 style="fill:rgb(148,148,148); fill-opacity:0.15; stroke:rgb(148,148,148); stroke-opacity:0; stroke-width:0" />
<rect x="460.331492" y="200.000000" width="16.795580" height="680.000000"
 style="fill:rgb(148,148,148); fill-opacity:0.15; stroke:rgb(148,148,148); stroke-opacity:0; stroke-width:0" />
<rect x="519.116022" y="200.000000" width="16.795580" height="680.000000"
 style="fill:rgb(148,148,148); fill-opacity:0.15; stroke:rgb(148,148,148); stroke-opacity:0; stroke-width:0" />
<rect x="577.900552" y="200.000000" width="16.795580" height="680.000000"
 style="fill:rgb(148,148,148); fill-opacity:0.15; stroke:rgb(148,148,148); stroke-opacity:0; stroke-width:0" />
<rect x="636.685083" y="200.000000" width="16.795580" height="680.000000"
 style="fill:rgb(148,148,148); fill-opacity:0.15; stroke:rgb(148,148,148); stroke-opacity:0; stroke-width:0" />
<rect x="695.469613" y="200.000000" width="16.795580" height="680.000000"
 style="fill:rgb(148,148,148); fill-opacity:0.15; stroke:rgb(148,148,148); stroke-opacity:0; stroke-width:0" />
<rect x="754.254144" y="200.000000" width="16.795580" height="680.000000"
 style="fill:rgb(148,148,148); fill-opacity:0.15; stroke:rgb(148,148,148); stroke-opacity:0; stroke-width:0" />
<rect x="813.038674" y="200.000000" width="16.795580" height="680.000000"
 style="fill:rgb(148,148,148); fill-opacity:0.15; stroke:rgb(148,148,148); stroke-opacity:0; stroke-width:0" />
<rect x="871.823204" y="200.000000" width="16.795580" height="680.000000"
 style="fill:rgb(148,148,148); fill-opacity:0.15; stroke:rgb(148,148,148); stroke-opacity:0; stroke-width:0" />
<rect x="930.607735" y="200.000000" width="16.795580" height="680.000000"
 style="fill:rgb(148,148,148); fill-opacity:0.15; stroke:rgb(148,148,148); stroke-opacity:0; stroke-width:0" />
<rect x="989.392265" y="200.000000" width="16.795580" height="680.000000"
 style="fill:rgb(148,148,148); fill-opacity:0.15; stroke:rgb(148,148,148); stroke-opacity:0; stroke-width:0" />
<rect x="1048.176796" y="200.000000" width="16.795580" height="680.000000"
 style="fill:rgb(148,148,148); fill-opacity:0.15; stroke:rgb(148,148,148); stroke-opacity:0; stroke-width:0" />
<rect x="1106.961326" y="200.000000" width="16.795580" height="680.000000"
 style="fill:rgb(148,148,148); fill-opacity:0.15; stroke:rgb(148,148,148); stroke-opacity:0; stroke-width:0" />
<rect x="1165.745856" y="200.000000" width="16.795580" height="680.000000"
 style="fill:rgb(148,148,148); fill-opacity:0.15; stroke:rgb(148,148,148); stroke-opacity:0; stroke-width:0" />
<rect x="1224.530387" y="200.000000" width="16.795580" height="680.000000"
 style="fill:rgb(148,148,148); fill-opacity:0.15; stroke:rgb(148,148,148); stroke-opacity:0; stroke-width:0" />
<rect x="1283.314917" y="200.000000" width="16.795580" height="680.000000"
 style="fill:rgb(148,148,148); fill-opacity:0.15; stroke:rgb(148,148,148); stroke-opacity:0; stroke-width:0" />
<rect x="1342.099448" y="200.000000" width="16.795580" height="680.000000"
 style="fill:rgb(148,148,148); fill-opacity:0.15; stroke:rgb(148,148,148); stroke-opacity:0; stroke-width:0" />
<rect x="1400.883978" y="200.000000" width="16.795580" height="680.000000"
 style="fill:rgb(148,148,148); fill-opacity:0.15; stroke:rgb(148,148,148); stroke-opacity:0; stroke-width:0" />
<rect x="1459.668508" y="200.000000" width="16.795580" height="680.000000"
 style="fill:rgb(148,148,148); fill-opacity:0.15; stroke:rgb(148,148,148); stroke-opacity:0; stroke-width:0" />
<rect x="1518.453039" y="200.000000" width="16.795580" height="680.000000"
 style="fill:rgb(148,148,148); fill-opacity:0.15; stroke:rgb(148,148,148); stroke-opacity:0; stroke-width:0" />
<rect x="1577.237569" y="200.000000" width="16.795580" height="680.000000"
 style="fill:rgb(148,148,148); fill-opacity:0.15; stroke:rgb(148,148,148); stroke-opacity:0; stroke-width:0" />
<rect x="1636.022099" y="200.000000" width="16.795580" height="680.000000"
 style="fill:rgb(148,148,148); fill-opacity:0.15; stroke:rgb(148,148,148); stroke-opacity:0; stroke-width:0" />
<rect x="1694.806630" y="200.000000" width="16.795580" height="680.000000"
 style="fill:rgb(148,148,148); fill-opacity:0.15; stroke:rgb(148,148,148); stroke-opacity:0; stroke-width:0" />
 </g>
 <g id="polyline-black-panther-wakanda-forever downloads by day">
<polyline points="200,777.74 208.398,208.334 216.796,322.419 225.193,241.573 233.591,200 241.989,247.39 250.387,342.416 258.785,394.622 267.182,427.903 275.58,457.157 283.978,458.174 292.376,444.684 300.773,464.481 309.171,511.282 317.569,539.183 325.967,549.178 334.365,558.477 342.762,541.894 351.16,528.821 359.558,541.256 367.956,565.249 376.354,580.971 384.751,590.341 393.149,588.471 401.547,584.389 409.945,589.362 418.343,598.149 426.74,610.569 435.138,616.809 443.536,627.387 451.934,629.082 460.331,621.269 468.729,622.363 477.127,629.255 485.525,637.32 493.923,639.573 502.32,647.995 510.718,647.643 519.116,649.756 527.514,651.067 535.912,650.248 544.309,647.948 552.707,660.645 561.105,666.725 569.503,669.365 577.901,671.391 586.298,668.386 594.696,673.531 603.094,679.258 611.492,683.585 619.89,690.135 628.287,684.919 636.685,686.3 645.083,685.798 653.481,691.701 661.878,685.784 670.276,691.528 678.674,696.663 687.072,690.802 695.47,691.196 703.867,692.129 712.265,700.702 720.663,704.797 729.061,709.539 737.459,707.396 745.856,709.921 754.254,708.175 762.652,705.746 771.05,714.208 779.448,714.015 787.845,714.653 796.243,714.797 804.641,714.963 813.039,719.598 821.436,718.567 829.834,721.534 838.232,721.573 846.63,728.071 855.028,724.445 863.425,722.877 871.823,728.42 880.221,728.48 888.619,735.617 897.017,750.281 905.414,740.68 913.812,740.406 922.21,747.972 930.608,746.621 939.006,745.743 947.403,749.414 955.801,749.086 964.199,752.379 972.597,751.634 980.994,754.598 989.392,753.144 997.79,754.251 1006.19,755.553 1014.59,755.783 1022.98,755.748 1031.38,756.406 1039.78,762.366 1048.18,756.993 1056.57,760.011 1064.97,761.852 1073.37,763.615 1081.77,762.368 1090.17,764.37 1098.56,768.958 1106.96,768.598 1115.36,770.27 1123.76,770.239 1132.15,769.534 1140.55,767.42 1148.95,768.603 1157.35,770.128 1165.75,768.952 1174.14,772.644 1182.54,772.289 1190.94,769.332 1199.34,771.836 1207.73,772.452 1216.13,774.682 1224.53,773.203 1232.93,774.906 1241.33,777.387 1249.72,772.261 1258.12,779.696 1266.52,778.937 1274.92,776.612 1283.31,773.93 1291.71,776.708 1300.11,777.729 1308.51,776.342 1316.91,777.533 1325.3,778.921 1333.7,780.755 1342.1,780.375 1350.5,783.088 1358.9,783.476 1367.29,780.657 1375.69,781.674 1384.09,783.521 1392.49,782.739 1400.88,787.169 1409.28,790.376 1417.68,785.959 1426.08,781.1 1434.48,788.149 1442.87,789.172 1451.27,790.473 1459.67,794.459 1468.07,792.112 1476.46,794.468 1484.86,789.709 1493.26,788.414 1501.66,793.128 1510.06,793.236 1518.45,791.212 1526.85,792.457 1535.25,791.046 1543.65,789.686 1552.04,792.979 1560.44,794.593 1568.84,793.122 1577.24,799.201 1585.64,799.425 1594.03,801.539 1602.43,796.499 1610.83,794.116 1619.23,799.626 1627.62,801.085 1636.02,800.538 1644.42,800.536 1652.82,800.075 1661.22,797.988 1669.61,800.568 1678.01,800.638 1686.41,798.976 1694.81,800.838 1703.2,800.527 1711.6,802.037 1720,802.009 "  style="fill:rgb(0,0,255); fill-opacity:0; stroke:rgb(0,0,255); stroke-opacity:1; stroke-width:4" />
 </g>
 <g id="polyline-black-panther-wakanda-forever downloads by day uploaders">
<polyline points="200,869.944 208.398,667.618 216.796,695.111 225.193,624.454 233.591,623.498 241.989,677.796 250.387,738.053 258.785,709.008 267.182,694.73 275.58,721.362 283.978,720.701 292.376,709.404 300.773,713.296 309.171,737.821 317.569,745.08 325.967,752.108 334.365,759.138 342.762,754.81 351.16,746.741 359.558,745.363 367.956,754.511 376.354,761.235 384.751,765.674 393.149,766.756 401.547,756.224 409.945,756.168 418.343,761.902 426.74,764.833 435.138,767.851 443.536,773.878 451.934,775.398 460.331,772.299 468.729,769.113 477.127,769.967 485.525,773.701 493.923,789.311 502.32,798.993 510.718,803.382 519.116,800.262 527.514,787.378 535.912,787.049 544.309,786.201 552.707,795.344 561.105,795.732 569.503,802.215 577.901,800.57 586.298,799.016 594.696,795.894 603.094,798.697 611.492,801.132 619.89,809.729 628.287,805.521 636.685,806.523 645.083,807.185 653.481,809.104 661.878,808.275 670.276,806.572 678.674,812.182 687.072,811.511 695.47,811.859 703.867,814.879 712.265,823.757 720.663,822.002 729.061,818.466 737.459,815.333 745.856,817.874 754.254,819.452 762.652,818.781 771.05,822.039 779.448,823.214 787.845,823.828 796.243,825.348 804.641,831.034 813.039,836.411 821.436,833.296 829.834,827.548 838.232,827.837 846.63,828.749 855.028,829.478 863.425,830.753 871.823,832.328 880.221,832.166 888.619,834.381 897.017,835.371 905.414,833.709 913.812,837.073 922.21,856.016 930.608,855.671 939.006,857.391 947.403,858.075 955.801,855.181 964.199,856.67 972.597,858.374 980.994,858.842 989.392,860.189 997.79,860.913 1006.19,859.364 1014.59,858.275 1022.98,861.185 1031.38,860.321 1039.78,862.302 1048.18,862.359 1056.57,863.025 1064.97,862.994 1073.37,863.864 1081.77,866.22 1090.17,865.607 1098.56,865.908 1106.96,866.181 1115.36,868.461 1123.76,865.597 1132.15,867.029 1140.55,866.963 1148.95,866.854 1157.35,867.963 1165.75,869.238 1174.14,869.636 1182.54,868.924 1190.94,868.287 1199.34,868.761 1207.73,870.398 1216.13,872.077 1224.53,870.753 1232.93,872.238 1241.33,871.321 1249.72,870.945 1258.12,871.644 1266.52,872.386 1274.92,872.028 1283.31,872.317 1291.71,872.848 1300.11,872.578 1308.51,872.735 1316.91,872.358 1325.3,872.999 1333.7,873.313 1342.1,873.85 1350.5,875.057 1358.9,873.239 1367.29,872.654 1375.69,870.499 1384.09,873.945 1392.49,874.911 1400.88,875.773 1409.28,874.992 1417.68,875.16 1426.08,871.725 1434.48,874.618 1442.87,871.095 1451.27,872.451 1459.67,876.594 1468.07,875.815 1476.46,874.756 1484.86,874.661 1493.26,875.283 1501.66,874.444 1510.06,875.736 1518.45,876.298 1526.85,876 1535.25,876.901 1543.65,872.667 1552.04,873.479 1560.44,874.305 1568.84,873.565 1577.24,873.508 1585.64,873.909 1594.03,875.486 1602.43,876.055 1610.83,877.566 1619.23,876.528 1627.62,878.173 1636.02,878.676 1644.42,879.121 1652.82,877.413 1661.22,875.736 1669.61,878.826 1678.01,878.933 1686.41,879.054 1694.81,879.429 1703.2,880 1711.6,878.796 1720,879.417 " stroke-dasharray="5 15"  style="fill:rgb(0,0,255); fill-opacity:0; stroke:rgb(0,0,255); stroke-opacity:1; stroke-width:4" />
 </g>
</svg>
