<svg xml:space="preserve"
     xmlns="http://www.w3.org/2000/svg"
     xmlns:xlink="http://www.w3.org/1999/xlink"
     xmlns:html="http://www.w3.org/1999/xhtml"
id="last-of-us-101-downloads-by-day-day" x="0px" y="0px"
width="1920.000000px" height="1080.000000px"
viewBox="0 0 1920.000000 1080.000000" enable-background="new 0 0 1920.000000 1080.000000" role="img">
<title>
last-of-us-101-downloads-by-day-day
</title>
<desc>
Daily series for last-of-us-101: upeers_total solid, useeds_total dashed.
</desc>
<title>
last-of-us-101-downloads-by-day-day
</title>
 <g id="annotations">
<text x="960.000000" y="126.000000" font-family="Atkinson Hyperlegible" font-size="26.000000pt" text-anchor="middle" text-align="center" font-weight="600" font-style="normal"  style="fill:rgb(118,118,118); fill-opacity:1; stroke:rgb(118,118,118); stroke-opacity:0; stroke-width:0.5"> last-of-us-101 downloads by day</text>
 <g id="axes-lines">
<text x="960.000000" y="1007.000000" font-family="Atkinson Hyperlegible" font-size="18.000000pt" text-anchor="middle" text-align="center" font-weight="500" font-style="normal"  style="fill:rgb(118,118,118); fill-opacity:1; stroke:rgb(118,118,118); stroke-opacity:0; stroke-width:0.5"> DAY</text>
<text x="73.000000" y="540.000000" font-family="Atkinson Hyperlegible" font-size="18.000000pt" text-anchor="middle" text-align="center" dominant-baseline="central" font-weight="500" font-style="normal"  style="fill:rgb(118,118,118); fill-opacity:1; stroke:rgb(118,118,118); stroke-opacity:0; stroke-width:0.5" transform="rotate(-90,73,540)"> DOWNLOADERS</text>
 </g>
 <g id="tic-y-label-lines">
<line x1="218.000000" y1="795.408718" x2="1702.000000" y2="795.408718" style="fill:rgb(0,0,255); fill-opacity:0; stroke:rgb(242,242,242); stroke-opacity:1; stroke-width:4" />
<line x1="218.000000" y1="727.408718" x2="1702.000000" y2="727.408718" style="fill:rgb(0,0,255); fill-opacity:0; stroke:rgb(242,242,242); stroke-opacity:1; stroke-width:4" />
<line x1="218.000000" y1="659.408718" x2="1702.000000" y2="659.408718" style="fill:rgb(0,0,255); fill-opacity:0; stroke:rgb(242,242,242); stroke-opacity:1; stroke-width:4" />
<line x1="218.000000" y1="591.408718" x2="1702.000000" y2="591.408718" style="fill:rgb(0,0,255); fill-opacity:0; stroke:rgb(242,242,242); stroke-opacity:1; stroke-width:4" />
<line x1="218.000000" y1="523.408718" x2="1702.000000" y2="523.408718" style="fill:rgb(0,0,255); fill-opacity:0; stroke:rgb(242,242,242); stroke-opacity:1; stroke-width:4" />
<line x1="218.000000" y1="455.408718" x2="1702.000000" y2="455.408718" style="fill:rgb(0,0,255); fill-opacity:0; stroke:rgb(242,242,242); stroke-opacity:1; stroke-width:4" />
<line x1="218.000000" y1="387.408718" x2="1702.000000" y2="387.408718" style="fill:rgb(0,0,255); fill-opacity:0; stroke:rgb(242,242,242); stroke-opacity:1; stroke-width:4" />
<line x1="218.000000" y1="319.408718" x2="1702.000000" y2="319.408718" style="fill:rgb(0,0,255); fill-opacity:0; stroke:rgb(242,242,242); stroke-opacity:1; stroke-width:4" />
<line x1="218.000000" y1="251.408718" x2="1702.000000" y2="251.408718" style="fill:rgb(0,0,255); fill-opacity:0; stroke:rgb(242,242,242); stroke-opacity:1; stroke-width:4" />
<line x1="218.000000" y1="183.408718" x2="1702.000000" y2="183.408718" style="fill:rgb(0,0,255); fill-opacity:0; stroke:rgb(242,242,242); stroke-opacity:1; stroke-width:4" />
 </g>
 <g id="tic-x-labels">
<text x="200.000000" y="898.000000" font-family="Atkinson Hyperlegible" font-size="14.000000pt" text-anchor="middle" text-align="center" dominant-baseline="central" font-weight="400" font-style="normal"  style="fill:rgb(118,118,118); fill-opacity:1; stroke:rgb(118,118,118); stroke-opacity:0; stroke-width:0.5"> 1</text>
<text x="276.000000" y="898.000000" font-family="Atkinson Hyperlegible" font-size="14.000000pt" text-anchor="middle" text-align="center" dominant-baseline="central" font-weight="400" font-style="normal"  style="fill:rgb(118,118,118); fill-opacity:1; stroke:rgb(118,118,118); stroke-opacity:0; stroke-width:0.5"> 10</text>
<text x="352.000000" y="898.000000" font-family="Atkinson Hyperlegible" font-size="14.000000pt" text-anchor="middle" text-align="center" dominant-baseline="central" font-weight="400" font-style="normal"  style="fill:rgb(118,118,118); fill-opacity:1; stroke:rgb(118,118,118); stroke-opacity:0; stroke-width:0.5"> 19</text>
<text x="428.000000" y="898.000000" font-family="Atkinson Hyperlegible" font-size="14.000000pt" text-anchor="middle" text-align="center" dominant-baseline="central" font-weight="400" font-style="normal"  style="fill:rgb(118,118,118); fill-opacity:1; stroke:rgb(118,118,118); stroke-opacity:0; stroke-width:0.5"> 28</text>
<text x="504.000000" y="898.000000" font-family="Atkinson Hyperlegible" font-size="14.000000pt" text-anchor="middle" text-align="center" dominant-baseline="central" font-weight="400" font-style="normal"  style="fill:rgb(118,118,118); fill-opacity:1; stroke:rgb(118,118,118); stroke-opacity:0; stroke-width:0.5"> 37</text>
<text x="580.000000" y="898.000000" font-family="Atkinson Hyperlegible" font-size="14.000000pt" text-anchor="middle" text-align="center" dominant-baseline="central" font-weight="400" font-style="normal"  style="fill:rgb(118,118,118); fill-opacity:1; stroke:rgb(118,118,118); stroke-opacity:0; stroke-width:0.5"> 46</text>
<text x="656.000000" y="898.000000" font-family="Atkinson Hyperlegible" font-size="14.000000pt" text-anchor="middle" text-align="center" dominant-baseline="central" font-weight="400" font-style="normal"  style="fill:rgb(118,118,118); fill-opacity:1; stroke:rgb(118,118,118); stroke-opacity:0; stroke-width:0.5"> 55</text>
<text x="732.000000" y="898.000000" font-family="Atkinson Hyperlegible" font-size="14.000000pt" text-anchor="middle" text-align="center" dominant-baseline="central" font-weight="400" font-style="normal"  style="fill:rgb(118,118,118); fill-opacity:1; stroke:rgb(118,118,118); stroke-opacity:0; stroke-width:0.5"> 64</text>
<text x="808.000000" y="898.000000" font-family="Atkinson Hyperlegible" font-size="14.000000pt" text-anchor="middle" text-align="center" dominant-baseline="central" font-weight="400" font-style="normal"  style="fill:rgb(118,118,118); fill-opacity:1; stroke:rgb(118,118,118); stroke-opacity:0; stroke-width:0.5"> 73</text>
<text x="884.000000" y="898.000000" font-family="Atkinson Hyperlegible" font-size="14.000000pt" text-anchor="middle" text-align="center" dominant-baseline="central" font-weight="400" font-style="normal"  style="fill:rgb(118,118,118); fill-opacity:1; stroke:rgb(118,118,118); stroke-opacity:0; stroke-width:0.5"> 82</text>
<text x="960.000000" y="898.000000" font-family="Atkinson Hyperlegible" font-size="14.000000pt" text-anchor="middle" text-align="center" dominant-baseline="central" font-weight="400" font-style="normal"  style="fill:rgb(118,118,118); fill-opacity:1; stroke:rgb(118,118,118); stroke-opacity:0; stroke-width:0.5"> 91</text>
<text x="1036.000000" y="898.000000" font-family="Atkinson Hyperlegible" font-size="14.000000pt" text-anchor="middle" text-align="center" dominant-baseline="central" font-weight="400" font-style="normal"  style="fill:rgb(118,118,118); fill-opacity:1; stroke:rgb(118,118,118); stroke-opacity:0; stroke-width:0.5"> 100</text>
<text x="1112.000000" y="898.000000" font-family="Atkinson Hyperlegible" font-size="14.000000pt" text-anchor="middle" text-align="center" dominant-baseline="central" font-weight="400" font-style="normal"  style="fill:rgb(118,118,118); fill-opacity:1; stroke:rgb(118,118,118); stroke-opacity:0; stroke-width:0.5"> 109</text>
<text x="1188.000000" y="898.000000" font-family="Atkinson Hyperlegible" font-size="14.000000pt" text-anchor="middle" text-align="center" dominant-baseline="central" font-weight="400" font-style="normal"  style="fill:rgb(118,118,118); fill-opacity:1; stroke:rgb(118,118,118); stroke-opacity:0; stroke-width:0.5"> 118</text>
<text x="1264.000000" y="898.000000" font-family="Atkinson Hyperlegible" font-size="14.000000pt" text-anchor="middle" text-align="center" dominant-baseline="central" font-weight="400" font-style="normal"  style="fill:rgb(118,118,118); fill-opacity:1; stroke:rgb(118,118,118); stroke-opacity:0; stroke-width:0.5"> 127</text>
<text x="1340.000000" y="898.000000" font-family="Atkinson Hyperlegible" font-size="14.000000pt" text-anchor="middle" text-align="center" dominant-baseline="central" font-weight="400" font-style="normal"  style="fill:rgb(118,118,118); fill-opacity:1; stroke:rgb(118,118,118); stroke-opacity:0; stroke-width:0.5"> 136</text>
<text x="1416.000000" y="898.000000" font-family="Atkinson Hyperlegible" font-size="14.000000pt" text-anchor="middle" text-align="center" dominant-baseline="central" font-weight="400" font-style="normal"  style="fill:rgb(118,118,118); fill-opacity:1; stroke:rgb(118,118,118); stroke-opacity:0; stroke-width:0.5"> 145</text>
<text x="1492.000000" y="898.000000" font-family="Atkinson Hyperlegible" font-size="14.000000pt" text-anchor="middle" text-align="center" dominant-baseline="central" font-weight="400" font-style="normal"  style="fill:rgb(118,118,118); fill-opacity:1; stroke:rgb(118,118,118); stroke-opacity:0; stroke-width:0.5"> 154</text>
<text x="1568.000000" y="898.000000" font-family="Atkinson Hyperlegible" font-size="14.000000pt" text-anchor="middle" text-align="center" dominant-baseline="central" font-weight="400" font-style="normal"  style="fill:rgb(118,118,118); fill-opacity:1; stroke:rgb(118,118,118); stroke-opacity:0; stroke-width:0.5"> 163</text>
<text x="1644.000000" y="898.000000" font-family="Atkinson Hyperlegible" font-size="14.000000pt" text-anchor="middle" text-align="center" dominant-baseline="central" font-weight="400" font-style="normal"  style="fill:rgb(118,118,118); fill-opacity:1; stroke:rgb(118,118,118); stroke-opacity:0; stroke-width:0.5"> 172</text>
<text x="1720.000000" y="898.000000" font-family="Atkinson Hyperlegible" font-size="14.000000pt" text-anchor="middle" text-align="center" dominant-baseline="central" font-weight="400" font-style="normal"  style="fill:rgb(118,118,118); fill-opacity:1; stroke:rgb(118,118,118); stroke-opacity:0; stroke-width:0.5"> 181</text>
 </g>
 <g id="tic-y-labels">
<text x="164.000000" y="865.408718" font-family="Atkinson Hyperlegible" font-size="14.000000pt" text-anchor="middle" text-align="center" dominant-baseline="central" font-weight="400" font-style="normal"  style="fill:rgb(118,118,118); fill-opacity:1; stroke:rgb(118,118,118); stroke-opacity:0; stroke-width:0.5"> 13k</text>
<text x="1756.000000" y="865.408718" font-family="Atkinson Hyperlegible" font-size="14.000000pt" text-anchor="middle" text-align="center" dominant-baseline="central" font-weight="400" font-style="normal"  style="fill:rgb(118,118,118); fill-opacity:1; stroke:rgb(118,118,118); stroke-opacity:0; stroke-width:0.5"> 13k</text>
<text x="164.000000" y="797.408718" font-family="Atkinson Hyperlegible" font-size="14.000000pt" text-anchor="middle" text-align="center" dominant-baseline="central" font-weight="400" font-style="normal"  style="fill:rgb(118,118,118); fill-opacity:1; stroke:rgb(118,118,118); stroke-opacity:0; stroke-width:0.5"> 74k</text>
<text x="1756.000000" y="797.408718" font-family="Atkinson Hyperlegible" font-size="14.000000pt" text-anchor="middle" text-align="center" dominant-baseline="central" font-weight="400" font-style="normal"  style="fill:rgb(118,118,118); fill-opacity:1; stroke:rgb(118,118,118); stroke-opacity:0; stroke-width:0.5"> 74k</text>
<text x="164.000000" y="729.408718" font-family="Atkinson Hyperlegible" font-size="14.000000pt" text-anchor="middle" text-align="center" dominant-baseline="central" font-weight="400" font-style="normal"  style="fill:rgb(118,118,118); fill-opacity:1; stroke:rgb(118,118,118); stroke-opacity:0; stroke-width:0.5"> 134k</text>
<text x="1756.000000" y="729.408718" font-family="Atkinson Hyperlegible" font-size="14.000000pt" text-anchor="middle" text-align="center" dominant-baseline="central" font-weight="400" font-style="normal"  style="fill:rgb(118,118,118); fill-opacity:1; stroke:rgb(118,118,118); stroke-opacity:0; stroke-width:0.5"> 134k</text>
<text x="164.000000" y="661.408718" font-family="Atkinson Hyperlegible" font-size="14.000000pt" text-anchor="middle" text-align="center" dominant-baseline="central" font-weight="400" font-style="normal"  style="fill:rgb(118,118,118); fill-opacity:1; stroke:rgb(118,118,118); stroke-opacity:0; stroke-width:0.5"> 195k</text>
<text x="1756.000000" y="661.408718" font-family="Atkinson Hyperlegible" font-size="14.000000pt" text-anchor="middle" text-align="center" dominant-baseline="central" font-weight="400" font-style="normal"  style="fill:rgb(118,118,118); fill-opacity:1; stroke:rgb(118,118,118); stroke-opacity:0; stroke-width:0.5"> 195k</text>
<text x="164.000000" y="593.408718" font-family="Atkinson Hyperlegible" font-size="14.000000pt" text-anchor="middle" text-align="center" dominant-baseline="central" font-weight="400" font-style="normal"  style="fill:rgb(118,118,118); fill-opacity:1; stroke:rgb(118,118,118); stroke-opacity:0; stroke-width:0.5"> 255k</text>
<text x="1756.000000" y="593.408718" font-family="Atkinson Hyperlegible" font-size="14.000000pt" text-anchor="middle" text-align="center" dominant-baseline="central" font-weight="400" font-style="normal"  style="fill:rgb(118,118,118); fill-opacity:1; stroke:rgb(118,118,118); stroke-opacity:0; stroke-width:0.5"> 255k</text>
<text x="164.000000" y="525.408718" font-family="Atkinson Hyperlegible" font-size="14.000000pt" text-anchor="middle" text-align="center" dominant-baseline="central" font-weight="400" font-style="normal"  style="fill:rgb(118,118,118); fill-opacity:1; stroke:rgb(118,118,118); stroke-opacity:0; stroke-width:0.5"> 316k</text>
<text x="1756.000000" y="525.408718" font-family="Atkinson Hyperlegible" font-size="14.000000pt" text-anchor="middle" text-align="center" dominant-baseline="central" font-weight="400" font-style="normal"  style="fill:rgb(118,118,118); fill-opacity:1; stroke:rgb(118,118,118); stroke-opacity:0; stroke-width:0.5"> 316k</text>
<text x="164.000000" y="457.408718" font-family="Atkinson Hyperlegible" font-size="14.000000pt" text-anchor="middle" text-align="center" dominant-baseline="central" font-weight="400" font-style="normal"  style="fill:rgb(118,118,118); fill-opacity:1; stroke:rgb(118,118,118); stroke-opacity:0; stroke-width:0.5"> 376k</text>
<text x="1756.000000" y="457.408718" font-family="Atkinson Hyperlegible" font-size="14.000000pt" text-anchor="middle" text-align="center" dominant-baseline="central" font-weight="400" font-style="normal"  style="fill:rgb(118,118,118); fill-opacity:1; stroke:rgb(118,118,118); stroke-opacity:0; stroke-width:0.5"> 376k</text>
<text x="164.000000" y="389.408718" font-family="Atkinson Hyperlegible" font-size="14.000000pt" text-anchor="middle" text-align="center" dominant-baseline="central" font-weight="400" font-style="normal"  style="fill:rgb(118,118,118); fill-opacity:1; stroke:rgb(118,118,118); stroke-opacity:0; stroke-width:0.5"> 437k</text>
<text x="1756.000000" y="389.408718" font-family="Atkinson Hyperlegible" font-size="14.000000pt" text-anchor="middle" text-align="center" dominant-baseline="central" font-weight="400" font-style="normal"  style="fill:rgb(118,118,118); fill-opacity:1; stroke:rgb(118,118,118); stroke-opacity:0; stroke-width:0.5"> 437k</text>
<text x="164.000000" y="321.408718" font-family="Atkinson Hyperlegible" font-size="14.000000pt" text-anchor="middle" text-align="center" dominant-baseline="central" font-weight="400" font-style="normal"  style="fill:rgb(118,118,118); fill-opacity:1; stroke:rgb(118,118,118); stroke-opacity:0; stroke-width:0.5"> 498k</text>
<text x="1756.000000" y="321.408718" font-family="Atkinson Hyperlegible" font-size="14.000000pt" text-anchor="middle" text-align="center" dominant-baseline="central" font-weight="400" font-style="normal"  style="fill:rgb(118,118,118); fill-opacity:1; stroke:rgb(118,118,118); stroke-opacity:0; stroke-width:0.5"> 498k</text>
<text x="164.000000" y="253.408718" font-family="Atkinson Hyperlegible" font-size="14.000000pt" text-anchor="middle" text-align="center" dominant-baseline="central" font-weight="400" font-style="normal"  style="fill:rgb(118,118,118); fill-opacity:1; stroke:rgb(118,118,118); stroke-opacity:0; stroke-width:0.5"> 558k</text>
<text x="1756.000000" y="253.408718" font-family="Atkinson Hyperlegible" font-size="14.000000pt" text-anchor="middle" text-align="center" dominant-baseline="central" font-weight="400" font-style="normal"  style="fill:rgb(118,118,118); fill-opacity:1; stroke:rgb(118,118,118); stroke-opacity:0; stroke-width:0.5"> 558k</text>
<text x="164.000000" y="185.408718" font-family="Atkinson Hyperlegible" font-size="14.000000pt" text-anchor="middle" text-align="center" dominant-baseline="central" font-weight="400" font-style="normal"  style="fill:rgb(118,118,118); fill-opacity:1; stroke:rgb(118,118,118); stroke-opacity:0; stroke-width:0.5"> 619k</text>
<text x="1756.000000" y="185.408718" font-family="Atkinson Hyperlegible" font-size="14.000000pt" text-anchor="middle" text-align="center" dominant-baseline="central" font-weight="400" font-style="normal"  style="fill:rgb(118,118,118); fill-opacity:1; stroke:rgb(118,118,118); stroke-opacity:0; stroke-width:0.5"> 619k</text>
 </g>
 </g>
 <g id="weekend-bands-last-of-us-101 downloads by day">
<rect x="233.777778" y="200.000000" width="16.888889" height="680.000000"
 style="fill:rgb(148,148,148); fill-opacity:0.15; stroke:rgb(148,148,148); stroke-opacity:0; stroke-width:0" />
<rect x="292.888889" y="200.000000" width="16.888889" height="680.000000"
 style="fill:rgb(148,148,148); fill-opacity:0.15; stroke:rgb(148,148,148); stroke-opacity:0; stroke-width:0" />
<rect x="352.000000" y="200.000000" width="16.888889" height="680.000000"
 style="fill:rgb(148,148,148); fill-opacity:0.15; stroke:rgb(148,148,148); stroke-opacity:0; stroke-width:0" />
<rect x="411.111111" y="200.000000" width="16.888889" height="680.000000"
 style="fill:rgb(148,148,148); fill-opacity:0.15; stroke:rgb(148,148,148); stroke-opacity:0; stroke-width:0" />
<rect x="470.222222" y="200.000000" width="16.888889" height="680.000000"
 style="fill:rgb(148,148,148); fill-opacity:0.15; stroke:rgb(148,148,148); stroke-opacity:0; stroke-width:0" />
<rect x="529.333333" y="200.000000" width="16.888889" height="680.000000"
 style="fill:rgb(148,148,148); fill-opacity:0.15; stroke:rgb(148,148,148); stroke-opacity:0; stroke-width:0" />
<rect x="588.444444" y="200.000000" width="16.888889" height="680.000000"
 style="fill:rgb(148,148,148); fill-opacity:0.15; stroke:rgb(148,148,148); stroke-opacity:0; stroke-width:0" />
<rect x="647.555556" y="200.000000" width="16.888889" height="680.000000"
 style="fill:rgb(148,148,148); fill-opacity:0.15; stroke:rgb(148,148,148); stroke-opacity:0; stroke-width:0" />
<rect x="706.666667" y="200.000000" width="16.888889" height="680.000000"
 style="fill:rgb(148,148,148); fill-opacity:0.15; stroke:rgb(148,148,148); stroke-opacity:0; stroke-width:0" />
<rect x="765.777778" y="200.000000" width="16.888889" height="680.000000"
 style="fill:rgb(148,148,148); fill-opacity:0.15; stroke:rgb(148,148,148); stroke-opacity:0; stroke-width:0" />
<rect x="824.888889" y="200.000000" width="16.888889" height="680.000000"
 style="fill:rgb(148,148,148); fill-opacity:0.15; stroke:rgb(148,148,148); stroke-opacity:0; stroke-width:0" />
<rect x="884.000000" y="200.000000" width="16.888889" height="680.000000"
 style="fill:rgb(148,148,148); fill-opacity:0.15; stroke:rgb(148,148,148); stroke-opacity:0; stroke-width:0" />
<rect x="943.111111" y="200.000000" width="16.888889" height="680.000000"
 style="fill:rgb(148,148,148); fill-opacity:0.15; stroke:rgb(148,148,148); stroke-opacity:0; stroke-width:0" />
<rect x="1002.222222" y="200.000000" width="16.888889" height="680.000000"
 style="fill:rgb(148,148,148); fill-opacity:0.15; stroke:rgb(148,148,148); stroke-opacity:0; stroke-width:0" />
<rect x="1061.333333" y="200.000000" width="8.444444" height="680.000000"
 style="fill:rgb(148,148,148); fill-opacity:0.15; stroke:rgb(148,148,148); stroke-opacity:0; stroke-width:0" />
<rect x="1112.000000" y="200.000000" width="16.888889" height="680.000000"
 style="fill:rgb(148,148,148); fill-opacity:0.15; stroke:rgb(148,148,148); stroke-opacity:0; stroke-width:0" />
<rect x="1171.111111" y="200.000000" width="16.888889" height="680.000000"
 style="fill:rgb(148,148,148); fill-opacity:0.15; stroke:rgb(148,148,148); stroke-opacity:0; stroke-width:0" />
<rect x="1230.222222" y="200.000000" width="16.888889" height="680.000000"
 style="fill:rgb(148,148,148); fill-opacity:0.15; stroke:rgb(148,148,148); stroke-opacity:0; stroke-width:0" />
<rect x="1289.333333" y="200.000000" width="16.888889" height="680.000000"
 style="fill:rgb(148,148,148); fill-opacity:0.15; stroke:rgb(148,148,148); stroke-opacity:0; stroke-width:0" />
<rect x="1348.444444" y="200.000000" width="16.888889" height="680.000000"
 style="fill:rgb(148,148,148); fill-opacity:0.15; stroke:rgb(148,148,148); stroke-opacity:0; stroke-width:0" />
<rect x="1407.555556" y="200.000000" width="16.888889" height="680.000000"
 style="fill:rgb(148,148,148); fill-opacity:0.15; stroke:rgb(148,148,148); stroke-opacity:0; stroke-width:0" />
<rect x="1466.666667" y="200.000000" width="16.888889" height="680.000000"
 style="fill:rgb(148,148,148); fill-opacity:0.15; stroke:rgb(148,148,148); stroke-opacity:0; stroke-width:0" />
<rect x="1525.777778" y="200.000000" width="16.888889" height="680.000000"
 style="fill:rgb(148,148,148); fill-opacity:0.15; stroke:rgb(148,148,148); stroke-opacity:0; stroke-width:0" />
<rect x="1584.888889" y="200.000000" width="16.888889" height="680.000000"
 style="fill:rgb(148,148,148); fill-opacity:0.15; stroke:rgb(148,148,148); stroke-opacity:0; stroke-width:0" />
<rect x="1644.000000" y="200.000000" width="16.888889" height="680.000000"
 style="fill:rgb(148,148,148); fill-opacity:0.15; stroke:rgb(148,148,148); stroke-opacity:0; stroke-width:0" />
<rect x="1703.111111" y="200.000000" width="16.888889" height="680.000000"
 style="fill:rgb(148,148,148); fill-opacity:0.15; stroke:rgb(148,148,148); stroke-opacity:0; stroke-width:0" />
 </g>
 <g id="polyline-last-of-us-101 downloads by day">
<polyline points="200,518.609 208.444,200 216.889,291.908 225.333,356.11 233.778,402.306 242.222,404.019 250.667,375.274 259.111,317.782 267.556,360.157 276,430.219 284.444,472.695 292.889,495.514 301.333,482.334 309.778,472.438 318.222,424.858 326.667,453.57 335.111,500.307 343.556,534.562 352,541.633 360.444,537.725 368.889,534.763 377.333,507.25 385.778,533.406 394.222,569.561 402.667,586.168 411.111,600.125 419.556,553.657 428,546.05 436.444,574.715 444.889,595.225 453.333,611.163 461.778,618.378 470.222,623.725 478.667,611.276 487.111,602.602 495.556,584.788 504,610.048 512.444,625.655 520.889,635.517 529.333,638.397 537.778,634.088 546.222,631.426 554.667,614.519 563.111,637.736 571.556,646.719 580,653.778 588.444,649.65 596.889,652.954 605.333,648.022 613.778,631.437 622.222,646.91 630.667,657.25 639.111,667.067 647.556,663.515 656,658.62 664.444,650.058 672.889,634.025 681.333,647.835 689.778,664.863 698.222,682.05 706.667,681.948 715.111,687.085 723.556,687.875 732,698.683 740.444,706.214 748.889,710.154 757.333,713.891 765.778,719.888 774.222,714.53 782.667,718.546 791.111,719.102 799.556,723.649 808,723.309 816.444,729.736 824.889,731.063 833.333,729.094 841.778,727.219 850.222,738.711 858.667,744.372 867.111,748.396 875.556,744.629 884,747.198 892.444,744.499 900.889,746.971 909.333,743.726 917.778,747.747 926.222,755.344 934.667,757.451 943.111,760.039 951.556,758.937 960,758.293 968.444,760.812 976.889,763.407 985.333,766.91 993.778,765.203 1002.22,765.12 1010.67,763.106 1019.11,765.938 1027.56,768.933 1036,769.693 1044.44,770.472 1052.89,772.979 1061.33,773.647 1069.78,773.94 1078.22,768.801 1086.67,774.155 1095.11,774.201 1103.56,781.456 1112,778.794 1120.44,785.25 1128.89,780.22 1137.33,780.871 1145.78,784.301 1154.22,789.543 1162.67,790.402 1171.11,786.662 1179.56,790.152 1188,789.861 1196.44,789.452 1204.89,788 1213.33,790.455 1221.78,794.402 1230.22,790.803 1238.67,791.817 1247.11,792.604 1255.56,795.453 1264,793.78 1272.44,796.585 1280.89,796.272 1289.33,796.734 1297.78,797.904 1306.22,794.688 1314.67,793.808 1323.11,795.732 1331.56,798.258 1340,800.313 1348.44,800.809 1356.89,801.139 1365.33,802.138 1373.78,797.718 1382.22,802.28 1390.67,805.471 1399.11,800.93 1407.56,804.075 1416,799.285 1424.44,799.516 1432.89,803.056 1441.33,804.771 1449.78,806.439 1458.22,808.129 1466.67,804.574 1475.11,804.382 1483.56,803.546 1492,800.929 1500.44,804.913 1508.89,807.321 1517.33,808.393 1525.78,807.966 1534.22,812.275 1542.67,806.351 1551.11,811.288 1559.56,813.126 1568,811.298 1576.44,810.342 1584.89,807.375 1593.33,810.696 1601.78,811.305 1610.22,808.222 1618.67,814.328 1627.11,811.654 1635.56,811.478 1644,813.37 1652.44,814.472 1660.89,813.744 1669.33,811.418 1677.78,813.525 1686.22,815.237 1694.67,812.707 1703.11,815.108 1711.56,812.596 1720,811.873 "  style="fill:rgb(0,0,255); fill-opacity:0; stroke:rgb(0,0,255); stroke-opacity:1; stroke-width:4" />
 </g>
 <g id="polyline-last-of-us-101 downloads by day uploaders">
<polyline points="200,809.303 208.444,697.764 216.889,709.17 225.333,719.265 233.778,711.231 242.222,685.843 250.667,675.374 259.111,707.234 267.556,703.082 276,726.661 284.444,733.358 292.889,737.721 301.333,726.147 309.778,713.083 318.222,692.613 326.667,701.779 335.111,721.966 343.556,730.297 352,738.756 360.444,736.527 368.889,738.437 377.333,727.419 385.778,739.119 394.222,752.171 402.667,773.668 411.111,774.243 419.556,756.488 428,755.855 436.444,767.338 444.889,772.153 453.333,779.481 461.778,786.385 470.222,788.831 478.667,783.093 487.111,772.649 495.556,785.694 504,797.027 512.444,800.057 520.889,806.494 529.333,801.504 537.778,800.277 546.222,798.448 554.667,792.251 563.111,798.176 571.556,805.292 580,808.212 588.444,805.624 596.889,805.476 605.333,800.402 613.778,793.239 622.222,808.341 630.667,822.714 639.111,825.806 647.556,824.684 656,813.001 664.444,810.998 672.889,807.901 681.333,813.144 689.778,817.068 698.222,823.055 706.667,825.16 715.111,822.829 723.556,823.236 732,829.565 740.444,831.731 748.889,835.005 757.333,834.168 765.778,835.833 774.222,834.613 782.667,837.14 791.111,838.26 799.556,837.091 808,838.309 816.444,841.78 824.889,842.458 833.333,842.046 841.778,845.16 850.222,846.068 858.667,847.843 867.111,844.339 875.556,845.435 884,848.184 892.444,847.835 900.889,847.712 909.333,847.387 917.778,851.408 926.222,851.211 934.667,852.994 943.111,854.634 951.556,852.61 960,849.915 968.444,852.692 976.889,852.964 985.333,854.759 993.778,856.11 1002.22,856.708 1010.67,855.938 1019.11,854.542 1027.56,853.368 1036,856.935 1044.44,858.933 1052.89,859.223 1061.33,860.651 1069.78,859.267 1078.22,858.514 1086.67,860.243 1095.11,861.834 1103.56,862.661 1112,863.495 1120.44,864.983 1128.89,862.024 1137.33,862.746 1145.78,864.303 1154.22,864.946 1162.67,867.223 1171.11,866.702 1179.56,867.328 1188,864.49 1196.44,867.671 1204.89,870.221 1213.33,869.661 1221.78,870.292 1230.22,871.309 1238.67,871.265 1247.11,867.598 1255.56,870.615 1264,871.141 1272.44,872.018 1280.89,872.372 1289.33,872.252 1297.78,871.354 1306.22,871.536 1314.67,871.179 1323.11,872.961 1331.56,873.479 1340,875.251 1348.44,874.883 1356.89,874.909 1365.33,873.463 1373.78,874.595 1382.22,876.476 1390.67,876.327 1399.11,875.213 1407.56,875.91 1416,874.543 1424.44,875.611 1432.89,875.986 1441.33,876.679 1449.78,876.477 1458.22,877.741 1466.67,876.251 1475.11,876.988 1483.56,874.726 1492,874.538 1500.44,873.327 1508.89,877.155 1517.33,876.118 1525.78,876.449 1534.22,877.768 1542.67,876.862 1551.11,874.685 1559.56,876.862 1568,873.606 1576.44,874.562 1584.89,877.883 1593.33,879.106 1601.78,876.536 1610.22,876.962 1618.67,880 1627.11,877.053 1635.56,877.262 1644,877.64 1652.44,879.033 1660.89,876.172 1669.33,875.88 1677.78,877.945 1686.22,877.348 1694.67,876.356 1703.11,876.569 1711.56,875.126 1720,876.669 " stroke-dasharray="5 15"  style="fill:rgb(0,0,255); fill-opacity:0; stroke:rgb(0,0,255); stroke-opacity:1; stroke-width:4" />
 </g>
</svg>
